# xmcd
#
# Track frame offsets: 
#        150
#        29890
#        45622
#        59743
#        77610
#        86365
#        91586
#        105673
#        119266
#        126798
#        135859
#        152706
#        165045
#        172660
#        189795
#        204983
#
# Disc length: 2918 seconds
#
# Revision: 0
# Processed by: cddbd v1.5.2PL0 Copyright (c) Steve Scherf et al.
# Submitted via: ExactAudioCopy v0.99pb3
#
DISCID=b60b6410
DTITLE=Stunt Rock - Volume One, In Memory of Bob Segar
DYEAR=1998
DGENRE=Rape
TTITLE0=Richard Pryors' face catching on fire as he freebases cocaine 
TTITLE0=in the 80's
TTITLE1=fuck whats good for you and my potential
TTITLE2=please typeset this document
TTITLE3=hollow points for the snitches
TTITLE4=be sure to wear baggy pants and a visor, pussy
TTITLE5=a hatchet, with which i am going to town upon your vagina with
TTITLE6=we take it in our butts, in our mouth, in our pussy, or in our
TTITLE6=bedsores
TTITLE7=anal crybabies need double and triple penetration, her pussy i
TTITLE7=s very dry.
TTITLE8=lovie doll with air suction vagina, her tits, vagina, and open
TTITLE8=mouth make her just like a real woman love partner, $5.95
TTITLE9=hardcore anal action girls who love hard cocks in their stinky
TTITLE9=butts, sucking cum out of rectums, fist fucking, shit eating
TTITLE10=I need a double whammy on my muff and fanny
TTITLE11=will your big dick fit in my tight diseased pussy? if not i'l
TTITLE11=l suck it and pour aids blood on it
TTITLE12=fuck my 60 year old shithole as you eat her 18 year old cunt,
TTITLE12=a T.V.
TTITLE13=cock sucking sluts who want to suck you dry, dead bodies blow
TTITLE13=semen
TTITLE14=menstruate on my face
TTITLE15=seeks meaningful relationship w. woman. n.s n.d please. let's
TTITLE15=go to church together, and share our love for the lord
EXTD=
EXTT0=
EXTT1=
EXTT2=
EXTT3=
EXTT4=
EXTT5=
EXTT6=
EXTT7=
EXTT8=
EXTT9=
EXTT10=
EXTT11=
EXTT12=
EXTT13=
EXTT14=
EXTT15=
PLAYORDER=
